<!-- Created with Inkscape (http://www.inkscape.org/) -->
<svg xmlns:rdf="http://www.w3.org/1999/02/22-rdf-syntax-ns#" xmlns="http://www.w3.org/2000/svg" height="72" width="72" version="1.1" xmlns:cc="http://creativecommons.org/ns#" xmlns:xlink="http://www.w3.org/1999/xlink" xmlns:dc="http://purl.org/dc/elements/1.1/">
 <defs></defs>
 <metadata>
  <rdf:RDF>
   <cc:Work rdf:about="">
    <dc:format>image/svg+xml</dc:format>
    <dc:type rdf:resource="http://purl.org/dc/dcmitype/StillImage"/>
    <dc:title/>
   </cc:Work>
  </rdf:RDF>
 </metadata>
 <g transform="translate(-321.66025,-380.78979)">
  <path style="stroke:#cccccc;stroke-dasharray:none;stroke-miterlimit:4;stroke-width:0.1;fill:#008c7e;" d="m301.43,620.93c0,182.25-147.75,330-330,330s-330-147.75-330-330,147.75-330,330-330,330,147.75,330,330z" transform="matrix(0.10890172,0,0,0.10890172,360.7718,349.16912)"/>
 </g>
 <g transform="translate(-321.66025,-380.78979)">
  <path style="enable-background:accumulate;stroke-opacity:0;fill-rule:nonzero;color:#000000;stroke-miterlimit:4;fill:#ffffff;" d="m355.4,395.9c-1.6585,0.14362-3.085,1.6218-3.3607,3.6051l-0.3055,2.2608c-0.0613,0.10871-0.12938,0.21033-0.18332,0.32588l-5.9066,12.669c-0.23902,0.51207-0.37882,1.0491-0.42773,1.5683h-3.1977c-2.0938,0-3.7884,1.6742-3.7884,3.768v11.956c0,2.0938,1.6946,3.7884,3.7884,3.7884h5.5604c1.2727,1.1517,2.9472,1.8534,4.8068,1.8534h7.5768c3.9781,0,7.1694-3.1913,7.1694-7.1694v-12.322c0-3.9781-3.1913-7.1694-7.1694-7.1694h-2.3423l1.4461-10.51c0.31505-2.2666-0.98438-4.3159-2.9329-4.6031-0.24357-0.0359-0.49632-0.0408-0.73324-0.0204z"/>
  <rect ry="3.0205" style="enable-background:accumulate;fill-rule:nonzero;color:#000000;stroke:#ffffff;stroke-width:1.15470052;fill:#ffffff;" transform="matrix(0,1,-1,0,0,0)" height="16.264" width="6.5052" y="-374.58" x="411.03"/>
  <rect style="enable-background:accumulate;fill-rule:nonzero;color:#000000;stroke:#ffffff;stroke-width:1.15470052;fill:#ffffff;" transform="matrix(0,1,-1,0,0,0)" ry="3.2526" width="6.5052" y="-377.08" x="417.72" height="18.772"/>
  <rect style="enable-background:accumulate;fill-rule:nonzero;color:#000000;stroke:#ffffff;stroke-width:1.15470052;fill:#ffffff;" transform="matrix(0,1,-1,0,0,0)" ry="3.2526" height="16.694" width="6.5052" y="-375.01" x="424.41"/>
  <rect style="enable-background:accumulate;fill-rule:nonzero;color:#000000;stroke:#ffffff;stroke-width:1.15470052;fill:#ffffff;" transform="matrix(0,1,-1,0,0,0)" ry="3.2526" width="6.5052" y="-372.78" x="431.1" height="14.473"/>
 </g>
</svg>
